<svg xmlns="http://www.w3.org/2000/svg" version="1.1" xmlns:xlink="http://www.w3.org/1999/xlink" xmlns:svgjs="http://svgjs.dev/svgjs" width="2000" height="1500" viewBox="0 0 2000 1500"><rect width="2000" height="1500" fill="#000000"></rect><g transform="matrix(0.75,0,0,0.75,249.090909090909,521.0378468988227)"><svg viewBox="0 0 396 121" data-background-color="#000000" preserveAspectRatio="xMidYMid meet" height="611" width="2000" xmlns="http://www.w3.org/2000/svg" xmlns:xlink="http://www.w3.org/1999/xlink"><g id="tight-bounds" transform="matrix(1,0,0,1,0.2400000000000091,-0.04299939936180408)"><svg viewBox="0 0 395.52 121.08599879872362" height="121.08599879872362" width="395.52"><g><svg viewBox="0 0 568.780772731761 174.12871147789014" height="121.08599879872362" width="395.52"><g transform="matrix(1,0,0,1,0,24.06554550815993)"><svg viewBox="0 0 395.52 125.99762046157028" height="125.99762046157028" width="395.52"><g id="textblocktransform"><svg viewBox="0 0 395.52 125.99762046157028" height="125.99762046157028" width="395.52" id="textblock"><g><svg viewBox="0 0 395.52 73.11684088269453" height="73.11684088269453" width="395.52"><g transform="matrix(1,0,0,1,0,0)"><svg width="395.52" viewBox="1.6 -36.9 258.28 47.75" height="73.11684088269453" data-palette-color="#ffffff"><path d="M14-36.9L14-36.9Q16.5-36.9 18.88-36.2 21.25-35.5 23.4-34.2L23.4-34.2 21.1-30.85Q19.55-32 17.73-32.68 15.9-33.35 13.95-33.35L13.95-33.35Q11.3-33.35 9.45-32.02 7.6-30.7 7.6-27.8L7.6-27.8Q7.6-26.2 8.47-25.08 9.35-23.95 10.8-23.1 12.25-22.25 13.95-21.45L13.95-21.45Q15.7-20.65 17.53-19.7 19.35-18.75 20.88-17.48 22.4-16.2 23.33-14.38 24.25-12.55 24.25-9.9L24.25-9.9Q24.25-6.3 22.5-3.98 20.75-1.65 17.9-0.53 15.05 0.6 11.75 0.6L11.75 0.6Q9.05 0.6 6.53-0.13 4-0.85 1.6-2.1L1.6-2.1 3.4-6.2Q5.05-4.8 7.4-3.9 9.75-3 11.9-3L11.9-3Q13.55-3 15.25-3.63 16.95-4.25 18.1-5.65 19.25-7.05 19.25-9.25L19.25-9.25Q19.25-11.45 18.2-12.88 17.15-14.3 15.45-15.28 13.75-16.25 11.85-17.15L11.85-17.15Q10.2-17.95 8.55-18.8 6.9-19.65 5.55-20.8 4.2-21.95 3.4-23.55 2.6-25.15 2.6-27.4L2.6-27.4Q2.6-30.55 4.28-32.65 5.95-34.75 8.58-35.83 11.2-36.9 14-36.9ZM38.45-25.45L38.45-25.45Q42.4-25.45 44.4-23.3 46.4-21.15 46.4-17.25L46.4-17.25 46.4-4.8Q46.4-3.75 46.8-3.38 47.2-3 47.75-3L47.75-3Q48.2-3 48.7-3.13 49.2-3.25 49.65-3.45L49.65-3.45 50.55-0.75Q49.75-0.3 48.52 0.08 47.3 0.45 46 0.45L46 0.45Q44.7 0.45 43.65-0.28 42.6-1 42.35-2.95L42.35-2.95Q40.9-1.4 38.95-0.43 37 0.55 34.85 0.55L34.85 0.55Q31.9 0.55 29.95-1.2 28-2.95 28-6L28-6Q28-8.85 29.37-10.55 30.75-12.25 32.95-13.1 35.15-13.95 37.62-14.25 40.1-14.55 42.25-14.55L42.25-14.55 42.25-17.2Q42.25-19.3 41.4-20.75 40.55-22.2 38.1-22.2L38.1-22.2Q36.2-22.2 34.45-21.45 32.7-20.7 30.95-19.25L30.95-19.25 28.9-22.2Q30.95-23.85 33.4-24.65 35.85-25.45 38.45-25.45ZM42.25-9.7L42.25-11.3Q40.9-11.3 39.2-11.18 37.5-11.05 35.9-10.58 34.3-10.1 33.27-9.05 32.25-8 32.25-6.15L32.25-6.15Q32.25-4.5 33.37-3.73 34.5-2.95 36.2-2.95L36.2-2.95Q38-2.95 39.35-3.95 40.7-4.95 41.47-6.5 42.25-8.05 42.25-9.7L42.25-9.7ZM52.9-24.7L57.45-25.2Q57.8-24.4 58.05-23.5 58.3-22.6 58.4-21.75L58.4-21.75Q59.75-23.05 61.7-24.25 63.65-25.45 65.65-25.45L65.65-25.45Q68.05-25.45 69.75-24.48 71.45-23.5 72.5-21.3L72.5-21.3Q74-22.8 76.05-24.13 78.09-25.45 80.25-25.45L80.25-25.45Q83-25.45 84.67-24.3 86.34-23.15 87.09-21.18 87.84-19.2 87.84-16.6L87.84-16.6 87.84 0 83.7 0 83.7-15.25Q83.7-16.75 83.47-18.25 83.25-19.75 82.37-20.75 81.5-21.75 79.55-21.75L79.55-21.75Q77.8-21.75 76.09-20.63 74.4-19.5 73.25-18.35L73.25-18.35 73.25 0 69.09 0 69.09-15.25Q69.09-16.8 68.87-18.28 68.65-19.75 67.77-20.75 66.9-21.75 64.95-21.75L64.95-21.75Q63.85-21.75 62.7-21.23 61.55-20.7 60.5-19.93 59.45-19.15 58.65-18.45L58.65-18.45 58.65 0 54.5 0 54.5-18.05Q54.5-19.1 54.32-20.3 54.15-21.5 53.8-22.65 53.45-23.8 52.9-24.7L52.9-24.7ZM94.34-24.7L98.89-25.2Q99.24-24.4 99.49-23.5 99.74-22.6 99.84-21.75L99.84-21.75Q101.19-23.05 103.14-24.25 105.09-25.45 107.09-25.45L107.09-25.45Q109.49-25.45 111.19-24.48 112.89-23.5 113.94-21.3L113.94-21.3Q115.44-22.8 117.49-24.13 119.54-25.45 121.69-25.45L121.69-25.45Q124.44-25.45 126.12-24.3 127.79-23.15 128.54-21.18 129.29-19.2 129.29-16.6L129.29-16.6 129.29 0 125.14 0 125.14-15.25Q125.14-16.75 124.92-18.25 124.69-19.75 123.82-20.75 122.94-21.75 120.99-21.75L120.99-21.75Q119.24-21.75 117.54-20.63 115.84-19.5 114.69-18.35L114.69-18.35 114.69 0 110.54 0 110.54-15.25Q110.54-16.8 110.32-18.28 110.09-19.75 109.22-20.75 108.34-21.75 106.39-21.75L106.39-21.75Q105.29-21.75 104.14-21.23 102.99-20.7 101.94-19.93 100.89-19.15 100.09-18.45L100.09-18.45 100.09 0 95.94 0 95.94-18.05Q95.94-19.1 95.77-20.3 95.59-21.5 95.24-22.65 94.89-23.8 94.34-24.7L94.34-24.7ZM133.99-24.85L138.49-24.85Q139.59-21.75 140.67-18.65 141.74-15.55 142.84-12.3L142.84-12.3Q143.39-10.6 143.97-8.88 144.54-7.15 145.09-5.45L145.09-5.45Q145.64-7.2 146.22-8.9 146.79-10.6 147.34-12.3L147.34-12.3Q148.44-15.55 149.52-18.65 150.59-21.75 151.69-24.85L151.69-24.85 155.59-24.85 146.79 0.1Q146.24 1.65 145.39 3.53 144.54 5.4 143.39 7.05 142.24 8.7 140.69 9.78 139.14 10.85 137.19 10.85L137.19 10.85 135.29 10.85 135.29 7.5Q135.44 7.5 135.57 7.5 135.69 7.5 135.84 7.5L135.84 7.5Q137.94 7.5 139.32 6.25 140.69 5 141.59 3.23 142.49 1.45 143.09-0.2L143.09-0.2 133.99-24.85ZM160.44-33.1L159.74-36.4 170.59-36.4Q174.04-36.4 176.84-35.52 179.64-34.65 181.26-32.45 182.89-30.25 182.89-26.35L182.89-26.35Q182.89-24.35 181.94-22.5 180.99-20.65 179.41-19.28 177.84-17.9 175.94-17.3L175.94-17.3 186.14 0 180.74 0 171.34-16.35 165.09-16.35 165.09 0 160.44 0 160.44-33.1ZM170.59-32.95L165.09-32.95 165.09-19.75 169.09-19.75Q171.59-19.75 173.61-20.33 175.64-20.9 176.84-22.4 178.04-23.9 178.04-26.65L178.04-26.65Q178.04-28.8 176.99-30.18 175.94-31.55 174.24-32.25 172.54-32.95 170.59-32.95L170.59-32.95ZM197.99-25.45L197.99-25.45Q200.99-25.45 203.04-24.23 205.09-23 206.11-20.83 207.14-18.65 207.14-15.75L207.14-15.75Q207.14-15.05 207.06-14.33 206.99-13.6 206.89-12.8L206.89-12.8 191.09-12.8Q191.09-8.05 193.19-5.45 195.29-2.85 198.79-2.85L198.79-2.85Q200.24-2.85 201.81-3.3 203.39-3.75 205.09-4.65L205.09-4.65 206.64-2.15Q204.89-0.75 202.69-0.05 200.49 0.65 198.24 0.65L198.24 0.65Q194.34 0.65 191.76-1.2 189.19-3.05 187.94-6 186.69-8.95 186.69-12.15L186.69-12.15Q186.69-14.65 187.39-17 188.09-19.35 189.51-21.28 190.94-23.2 193.04-24.33 195.14-25.45 197.99-25.45ZM197.59-22.3L197.59-22.3Q195.89-22.3 194.59-21.35 193.29-20.4 192.49-18.93 191.69-17.45 191.39-15.9L191.39-15.9 202.79-15.9Q202.84-18 202.21-19.43 201.59-20.85 200.41-21.58 199.24-22.3 197.59-22.3ZM211.58-24.7L216.13-25.2Q216.48-24.4 216.73-23.5 216.98-22.6 217.08-21.75L217.08-21.75Q218.43-23.05 220.38-24.25 222.33-25.45 224.33-25.45L224.33-25.45Q226.73-25.45 228.43-24.48 230.13-23.5 231.18-21.3L231.18-21.3Q232.68-22.8 234.73-24.13 236.78-25.45 238.93-25.45L238.93-25.45Q241.68-25.45 243.36-24.3 245.03-23.15 245.78-21.18 246.53-19.2 246.53-16.6L246.53-16.6 246.53 0 242.38 0 242.38-15.25Q242.38-16.75 242.16-18.25 241.93-19.75 241.06-20.75 240.18-21.75 238.23-21.75L238.23-21.75Q236.48-21.75 234.78-20.63 233.08-19.5 231.93-18.35L231.93-18.35 231.93 0 227.78 0 227.78-15.25Q227.78-16.8 227.56-18.28 227.33-19.75 226.46-20.75 225.58-21.75 223.63-21.75L223.63-21.75Q222.53-21.75 221.38-21.23 220.23-20.7 219.18-19.93 218.13-19.15 217.33-18.45L217.33-18.45 217.33 0 213.18 0 213.18-18.05Q213.18-19.1 213.01-20.3 212.83-21.5 212.48-22.65 212.13-23.8 211.58-24.7L211.58-24.7ZM259.88-33.2L259.88-33.2Q259.88-31.95 259.01-31.05 258.13-30.15 256.83-30.15L256.83-30.15Q255.58-30.15 254.71-31.05 253.83-31.95 253.83-33.2L253.83-33.2Q253.83-34.45 254.71-35.35 255.58-36.25 256.83-36.25L256.83-36.25Q258.08-36.25 258.98-35.35 259.88-34.45 259.88-33.2ZM254.23-24.85L258.98-24.85 258.98 0 254.83 0 254.83-21.9 254.23-24.85Z" opacity="1" transform="matrix(1,0,0,1,0,0)" fill="#ffffff" class="wordmark-text-0" data-fill-palette-color="primary" id="text-0"></path></svg></g></svg></g><g transform="matrix(1,0,0,1,163.310208,90.37797221091753)"><svg viewBox="0 0 232.209792 35.619648250652745" height="35.619648250652745" width="232.209792"><g transform="matrix(1,0,0,1,0,0)"><svg width="232.209792" viewBox="0.95 -37 306.37 47" height="35.619648250652745" data-palette-color="#853ef4"><path d="M13.6 0L8.6 0 0.95-34.9 5.1-34.9 9.8-12.35 11.05-4 11.55-4 12.8-12.35 17.55-34.9 22.95-34.9 27.7-12.35 28.95-4 29.45-4 30.7-12.35 35.4-34.9 39.45-34.9 31.5 0 26.5 0 21.7-22.55 20.45-31.4 19.95-31.4 18.7-22.55 13.6 0ZM52.25 0.6L52.25 0.6Q50 0.6 48.05-0.15 46.1-0.9 44.7-2.55 43.3-4.2 42.5-6.75 41.7-9.3 41.7-12.9L41.7-12.9Q41.7-16.5 42.5-19.05 43.3-21.6 44.7-23.25 46.1-24.9 48.05-25.65 50-26.4 52.25-26.4L52.25-26.4Q54.5-26.4 56.37-25.65 58.25-24.9 59.55-23.25 60.85-21.6 61.57-19.05 62.3-16.5 62.3-12.9L62.3-12.9 62.3-11.95 45.75-11.95 45.75-10.3Q45.75-6.5 47.47-4.63 49.2-2.75 52.25-2.75L52.25-2.75Q54.85-2.75 56.5-3.88 58.15-5 59.1-7.25L59.1-7.25 61.7-5.35Q60.5-2.7 58.17-1.05 55.85 0.6 52.25 0.6ZM52.25-23.2L52.25-23.2Q49.15-23.2 47.45-21.25 45.75-19.3 45.75-15.5L45.75-15.5 45.75-14.85 58.25-14.85 58.25-15.5Q58.25-23.2 52.25-23.2ZM68.2 0L68.2-37 72-37 72-21.6 72.5-21.6Q73.25-24.15 74.92-25.28 76.6-26.4 79-26.4L79-26.4Q81.3-26.4 83.05-25.45 84.8-24.5 86-22.75 87.2-21 87.8-18.5 88.4-16 88.4-12.9L88.4-12.9Q88.4-9.8 87.8-7.3 87.2-4.8 86-3.05 84.8-1.3 83.05-0.35 81.3 0.6 79 0.6L79 0.6Q76.6 0.6 74.92-0.53 73.25-1.65 72.5-4.2L72.5-4.2 72-4.2 72 0 68.2 0ZM77.85-2.8L77.85-2.8Q81-2.8 82.65-4.78 84.3-6.75 84.3-10.3L84.3-10.3 84.3-15.5Q84.3-19.05 82.65-21.03 81-23 77.85-23L77.85-23Q76.65-23 75.57-22.65 74.5-22.3 73.72-21.65 72.95-21 72.47-20.1 72-19.2 72-18.1L72-18.1 72-7.7Q72-6.6 72.47-5.7 72.95-4.8 73.72-4.15 74.5-3.5 75.57-3.15 76.65-2.8 77.85-2.8ZM105.34 0L105.34-34.9 116.29-34.9Q122.34-34.9 125.64-30.73 128.94-26.55 128.94-17.45L128.94-17.45Q128.94-8.35 125.64-4.17 122.34 0 116.29 0L116.29 0 105.34 0ZM109.34-3.5L116.29-3.5Q120.04-3.5 122.34-6.1 124.64-8.7 124.64-13.55L124.64-13.55 124.64-21.35Q124.64-26.2 122.34-28.8 120.04-31.4 116.29-31.4L116.29-31.4 109.34-31.4 109.34-3.5ZM144.14 0.6L144.14 0.6Q141.89 0.6 139.94-0.15 137.99-0.9 136.59-2.55 135.19-4.2 134.39-6.75 133.59-9.3 133.59-12.9L133.59-12.9Q133.59-16.5 134.39-19.05 135.19-21.6 136.59-23.25 137.99-24.9 139.94-25.65 141.89-26.4 144.14-26.4L144.14-26.4Q146.39-26.4 148.26-25.65 150.14-24.9 151.44-23.25 152.74-21.6 153.46-19.05 154.19-16.5 154.19-12.9L154.19-12.9 154.19-11.95 137.64-11.95 137.64-10.3Q137.64-6.5 139.36-4.63 141.09-2.75 144.14-2.75L144.14-2.75Q146.74-2.75 148.39-3.88 150.04-5 150.99-7.25L150.99-7.25 153.59-5.35Q152.39-2.7 150.06-1.05 147.74 0.6 144.14 0.6ZM144.14-23.2L144.14-23.2Q141.04-23.2 139.34-21.25 137.64-19.3 137.64-15.5L137.64-15.5 137.64-14.85 150.14-14.85 150.14-15.5Q150.14-23.2 144.14-23.2ZM169.69 0L165.19 0 157.09-25.8 160.89-25.8 164.84-12.8 167.24-3.35 167.74-3.35 170.14-12.8 174.09-25.8 177.79-25.8 169.69 0ZM190.83 0.6L190.83 0.6Q188.58 0.6 186.63-0.15 184.68-0.9 183.28-2.55 181.88-4.2 181.08-6.75 180.28-9.3 180.28-12.9L180.28-12.9Q180.28-16.5 181.08-19.05 181.88-21.6 183.28-23.25 184.68-24.9 186.63-25.65 188.58-26.4 190.83-26.4L190.83-26.4Q193.08-26.4 194.96-25.65 196.83-24.9 198.13-23.25 199.43-21.6 200.16-19.05 200.88-16.5 200.88-12.9L200.88-12.9 200.88-11.95 184.33-11.95 184.33-10.3Q184.33-6.5 186.06-4.63 187.78-2.75 190.83-2.75L190.83-2.75Q193.43-2.75 195.08-3.88 196.73-5 197.68-7.25L197.68-7.25 200.28-5.35Q199.08-2.7 196.76-1.05 194.43 0.6 190.83 0.6ZM190.83-23.2L190.83-23.2Q187.73-23.2 186.03-21.25 184.33-19.3 184.33-15.5L184.33-15.5 184.33-14.85 196.83-14.85 196.83-15.5Q196.83-23.2 190.83-23.2ZM213.83 0L210.68 0Q208.63 0 207.71-0.93 206.78-1.85 206.78-3.9L206.78-3.9 206.78-37 210.58-37 210.58-3.35 213.83-3.35 213.83 0ZM227.93 0.6L227.93 0.6Q225.68 0.6 223.73-0.15 221.78-0.9 220.38-2.55 218.98-4.2 218.18-6.75 217.38-9.3 217.38-12.9L217.38-12.9Q217.38-16.5 218.18-19.05 218.98-21.6 220.38-23.25 221.78-24.9 223.73-25.65 225.68-26.4 227.93-26.4L227.93-26.4Q230.18-26.4 232.13-25.65 234.08-24.9 235.48-23.25 236.88-21.6 237.68-19.05 238.48-16.5 238.48-12.9L238.48-12.9Q238.48-9.3 237.68-6.75 236.88-4.2 235.48-2.55 234.08-0.9 232.13-0.15 230.18 0.6 227.93 0.6ZM227.93-2.8L227.93-2.8Q231.03-2.8 232.7-4.65 234.38-6.5 234.38-10.3L234.38-10.3 234.38-15.5Q234.38-19.3 232.7-21.15 231.03-23 227.93-23L227.93-23Q224.83-23 223.15-21.15 221.48-19.3 221.48-15.5L221.48-15.5 221.48-10.3Q221.48-6.5 223.15-4.65 224.83-2.8 227.93-2.8ZM244.33 10L244.33-25.8 248.13-25.8 248.13-21.6 248.63-21.6Q249.38-24.15 251.05-25.28 252.73-26.4 255.13-26.4L255.13-26.4Q257.43-26.4 259.18-25.45 260.93-24.5 262.13-22.75 263.33-21 263.93-18.5 264.53-16 264.53-12.9L264.53-12.9Q264.53-9.8 263.93-7.3 263.33-4.8 262.13-3.05 260.93-1.3 259.18-0.35 257.43 0.6 255.13 0.6L255.13 0.6Q252.73 0.6 251.05-0.53 249.38-1.65 248.63-4.2L248.63-4.2 248.13-4.2 248.13 10 244.33 10ZM253.98-2.8L253.98-2.8Q257.13-2.8 258.78-4.78 260.43-6.75 260.43-10.3L260.43-10.3 260.43-15.5Q260.43-19.05 258.78-21.03 257.13-23 253.98-23L253.98-23Q252.78-23 251.7-22.65 250.63-22.3 249.85-21.65 249.08-21 248.6-20.1 248.13-19.2 248.13-18.1L248.13-18.1 248.13-7.7Q248.13-6.6 248.6-5.7 249.08-4.8 249.85-4.15 250.63-3.5 251.7-3.15 252.78-2.8 253.98-2.8ZM279.32 0.6L279.32 0.6Q277.07 0.6 275.12-0.15 273.17-0.9 271.77-2.55 270.37-4.2 269.57-6.75 268.77-9.3 268.77-12.9L268.77-12.9Q268.77-16.5 269.57-19.05 270.37-21.6 271.77-23.25 273.17-24.9 275.12-25.65 277.07-26.4 279.32-26.4L279.32-26.4Q281.57-26.4 283.45-25.65 285.32-24.9 286.62-23.25 287.92-21.6 288.65-19.05 289.37-16.5 289.37-12.9L289.37-12.9 289.37-11.95 272.82-11.95 272.82-10.3Q272.82-6.5 274.55-4.63 276.27-2.75 279.32-2.75L279.32-2.75Q281.92-2.75 283.57-3.88 285.22-5 286.17-7.25L286.17-7.25 288.77-5.35Q287.57-2.7 285.25-1.05 282.92 0.6 279.32 0.6ZM279.32-23.2L279.32-23.2Q276.22-23.2 274.52-21.25 272.82-19.3 272.82-15.5L272.82-15.5 272.82-14.85 285.32-14.85 285.32-15.5Q285.32-23.2 279.32-23.2ZM299.07 0L295.27 0 295.27-25.8 299.07-25.8 299.07-21 299.57-21Q300.22-23.25 301.8-24.53 303.37-25.8 305.92-25.8L305.92-25.8 307.32-25.8 307.32-21.95 304.82-21.95Q302.12-21.95 300.6-20.75 299.07-19.55 299.07-17.15L299.07-17.15 299.07 0Z" opacity="1" transform="matrix(1,0,0,1,0,0)" fill="#853ef4" class="slogan-text-1" data-fill-palette-color="secondary" id="text-1"></path></svg></g></svg></g></svg></g></svg></g><g transform="matrix(1,0,0,1,412.78113132822295,0)"><svg viewBox="0 0 155.99964140353796 174.12871147789014" height="174.12871147789014" width="155.99964140353796"><g><svg xmlns="http://www.w3.org/2000/svg" xmlns:xlink="http://www.w3.org/1999/xlink" version="1.1" x="0" y="0" viewBox="10.618179522493447 8.079 43.7587025140418 48.844000000000015" enable-background="new 7.5 7.5 50 50" xml:space="preserve" height="174.12871147789014" width="155.99964140353796" class="icon-icon-0" data-fill-palette-color="accent" id="icon-0"><path d="M54.169 24.292C53.964 20.635 50.95 9.898 40.165 8.589c-2.185-0.265-4.517-0.51-6.767-0.51-6.475 0-10.934 2.104-14.909 7.037-4.512 5.597-3.354 10.369-2.589 13.526 0.29 1.192 0.539 2.222 0.289 2.723-1.054 2.108-4.642 7.231-4.684 7.29-0.853 1.263-1.083 2.182-0.723 2.892 0.547 1.079 2.261 1.146 3.918 1.209 1.139 0.045 2.43 0.095 2.81 0.494 0.8 0.842 0.894 3.489 0.962 5.423 0.048 1.354 0.086 2.423 0.305 3.035 0.133 0.373 0.49 0.816 1.437 0.816 0.627 0 1.401-0.175 2.297-0.377 1.395-0.314 3.11-0.644 4.203-0.372 0.479 0.12 0.832 0.379 1.078 0.792 0.793 1.335 0.193 3.707 0.188 3.73-0.039 0.15-0.006 0.31 0.089 0.432 0.094 0.122 0.24 0.194 0.395 0.194H49.03c0.156 0 0.301-0.082 0.395-0.206 0.095-0.124 0.123-0.294 0.082-0.444-0.005-0.02-0.13-0.497-0.13-2.648 0-0.576-0.08-1.139-0.165-1.733-0.281-1.98-0.632-4.444 1.667-9.582 0.509-1.136 0.956-2.056 1.345-2.857C54.195 35.392 54.725 34.301 54.169 24.292zM51.324 39.014c-0.393 0.809-0.845 1.738-1.357 2.886-2.418 5.4-2.028 8.135-1.744 10.131 0.083 0.583 0.154 1.087 0.154 1.593 0 1.143 0.033 1.855 0.074 2.299H29.076c0.152-0.918 0.301-2.646-0.422-3.864-0.384-0.647-0.954-1.069-1.696-1.255-1.304-0.326-3.157 0.027-4.665 0.367-1.259 0.285-2.474 0.479-2.573 0.2-0.167-0.467-0.206-1.568-0.247-2.734-0.083-2.325-0.176-4.96-1.237-6.077-0.659-0.694-2.037-0.747-3.496-0.804-1.24-0.048-2.784-0.107-3.065-0.662-0.098-0.192-0.142-0.693 0.654-1.872 0.149-0.213 3.668-5.236 4.754-7.41 0.414-0.829 0.138-1.966-0.211-3.405-0.72-2.967-1.808-7.45 2.395-12.663 3.766-4.671 7.992-6.665 14.131-6.665 2.197 0 4.492 0.242 6.646 0.503 10.28 1.248 12.97 11.965 13.127 14.766C53.712 34.098 53.254 35.041 51.324 39.014z" fill="#853ef4" data-fill-palette-color="accent"></path><path d="M30.679 22.078c-0.191-0.197-0.507-0.205-0.707-0.013l-7.084 6.833c-0.002 0.002-0.003 0.005-0.005 0.008-0.002 0.002-0.005 0.002-0.007 0.005-0.022 0.023-0.033 0.052-0.049 0.077-0.018 0.028-0.041 0.053-0.053 0.083-0.013 0.031-0.014 0.063-0.021 0.095-0.006 0.031-0.016 0.061-0.016 0.092s0.01 0.061 0.016 0.092c0.006 0.032 0.008 0.064 0.021 0.095 0.012 0.03 0.035 0.055 0.053 0.082 0.017 0.026 0.027 0.055 0.049 0.078 0.002 0.002 0.005 0.003 0.007 0.005 0.002 0.002 0.003 0.005 0.005 0.008l7.084 6.833c0.097 0.094 0.222 0.141 0.347 0.141 0.131 0 0.262-0.051 0.36-0.153 0.192-0.198 0.186-0.515-0.013-0.706l-6.711-6.474 6.711-6.473C30.865 22.593 30.871 22.277 30.679 22.078z" fill="#853ef4" data-fill-palette-color="accent"></path><path d="M46.627 29.164c-0.006-0.031-0.008-0.063-0.02-0.093-0.013-0.03-0.035-0.056-0.054-0.083-0.017-0.025-0.027-0.054-0.049-0.076-0.002-0.002-0.005-0.003-0.008-0.005-0.002-0.002-0.003-0.005-0.005-0.007l-7.084-6.833c-0.197-0.192-0.514-0.185-0.707 0.013-0.191 0.199-0.186 0.515 0.014 0.707l6.711 6.473-6.711 6.474c-0.199 0.191-0.205 0.508-0.013 0.706 0.098 0.103 0.229 0.153 0.359 0.153 0.125 0 0.25-0.047 0.347-0.141l7.084-6.833c0.002-0.002 0.003-0.004 0.004-0.006 0.003-0.003 0.007-0.003 0.01-0.006 0.025-0.026 0.039-0.06 0.057-0.09 0.015-0.023 0.034-0.044 0.045-0.069 0.013-0.033 0.016-0.068 0.021-0.103 0.005-0.029 0.015-0.057 0.015-0.085C46.644 29.226 46.634 29.195 46.627 29.164z" fill="#853ef4" data-fill-palette-color="accent"></path><path d="M37.897 20.17c-0.257-0.087-0.546 0.045-0.638 0.305l-6.082 17.233c-0.092 0.26 0.045 0.546 0.305 0.638 0.055 0.02 0.111 0.028 0.167 0.028 0.206 0 0.399-0.128 0.472-0.334l6.082-17.232C38.295 20.548 38.158 20.263 37.897 20.17z" fill="#853ef4" data-fill-palette-color="accent"></path></svg></g></svg></g></svg></g><defs></defs></svg><rect width="395.52" height="121.08599879872362" fill="none" stroke="none" visibility="hidden"></rect></g></svg></g></svg>